<svg xmlns="http://www.w3.org/2000/svg" width="1200" height="630" viewBox="0 0 1200 630">
  <defs>
    <linearGradient id="bg" x1="0" y1="0" x2="1" y2="1">
      <stop offset="0%" stop-color="#12121A"/>
      <stop offset="100%" stop-color="#1a1a2e"/>
    </linearGradient>
  </defs>
  <!-- Border -->
  <rect width="1200" height="630" fill="#00F0FF" rx="0"/>
  <rect x="4" y="4" width="1192" height="622" fill="url(#bg)" rx="0"/>
  <!-- Top bar -->
  <rect x="4" y="4" width="1192" height="56" fill="#1E1E2A"/>
  <line x1="4" y1="60" x2="1196" y2="60" stroke="#00F0FF" stroke-width="2"/>
  <!-- Dots -->
  <circle cx="24" cy="32" r="5" fill="#FF2D55"/>
  <circle cx="44" cy="32" r="5" fill="#FFB800"/>
  <circle cx="64" cy="32" r="5" fill="#00F0FF"/>
  <!-- Top text -->
  <text x="84" y="37" font-family="monospace" font-size="12" fill="#8A8F98" letter-spacing="2">TFC_GUIDE // SYSTEM_OVERVIEW</text>
  <!-- Grid lines -->
  <g stroke="rgba(0,240,255,0.05)" stroke-width="1">
    <line x1="64" y1="60" x2="64" y2="580"/><line x1="124" y1="60" x2="124" y2="580"/>
    <line x1="184" y1="60" x2="184" y2="580"/><line x1="244" y1="60" x2="244" y2="580"/>
    <line x1="304" y1="60" x2="304" y2="580"/><line x1="364" y1="60" x2="364" y2="580"/>
    <line x1="424" y1="60" x2="424" y2="580"/><line x1="484" y1="60" x2="484" y2="580"/>
    <line x1="544" y1="60" x2="544" y2="580"/><line x1="604" y1="60" x2="604" y2="580"/>
    <line x1="664" y1="60" x2="664" y2="580"/><line x1="724" y1="60" x2="724" y2="580"/>
    <line x1="784" y1="60" x2="784" y2="580"/><line x1="844" y1="60" x2="844" y2="580"/>
    <line x1="904" y1="60" x2="904" y2="580"/><line x1="964" y1="60" x2="964" y2="580"/>
    <line x1="1024" y1="60" x2="1024" y2="580"/><line x1="1084" y1="60" x2="1084" y2="580"/>
    <line x1="1144" y1="60" x2="1144" y2="580"/>
    <line x1="4" y1="120" x2="1196" y2="120"/><line x1="4" y1="180" x2="1196" y2="180"/>
    <line x1="4" y1="240" x2="1196" y2="240"/><line x1="4" y1="300" x2="1196" y2="300"/>
    <line x1="4" y1="360" x2="1196" y2="360"/><line x1="4" y1="420" x2="1196" y2="420"/>
    <line x1="4" y1="480" x2="1196" y2="480"/><line x1="4" y1="540" x2="1196" y2="540"/>
  </g>
  <!-- Badge -->
  <rect x="440" y="200" width="320" height="30" rx="4" fill="rgba(0,240,255,0.08)" stroke="rgba(0,240,255,0.2)" stroke-width="1"/>
  <text x="600" y="221" font-family="monospace" font-size="11" fill="#00F0FF" text-anchor="middle" letter-spacing="4">UNOFFICIAL FAN GUIDE</text>
  <!-- Title -->
  <text x="600" y="290" font-family="sans-serif" font-size="72" font-weight="800" fill="#E8ECF0" text-anchor="middle">The Freak</text>
  <text x="600" y="370" font-family="sans-serif" font-size="72" font-weight="800" fill="#00F0FF" text-anchor="middle">Circus</text>
  <text x="600" y="435" font-family="sans-serif" font-size="28" fill="#FF2D55" text-anchor="middle" font-weight="700">Complete Guide</text>
  <!-- Subtitle -->
  <text x="600" y="485" font-family="sans-serif" font-size="20" fill="#8A8F98" text-anchor="middle">All 5 characters · 13 endings · Walkthrough maps · Play-in-page</text>
  <!-- Bottom bar -->
  <rect x="4" y="580" width="1192" height="46" fill="#1E1E2A"/>
  <line x1="4" y1="580" x2="1196" y2="580" stroke="#FF2D55" stroke-width="2"/>
  <text x="24" y="609" font-family="monospace" font-size="11" fill="#00F0FF" letter-spacing="1">thefreakcircusguide.com</text>
  <text x="1176" y="609" font-family="monospace" font-size="11" fill="#8A8F98" text-anchor="end" letter-spacing="1">Free · No signup · Updated v0.2</text>
</svg>
